<?xml version="1.0" standalone="no"?>
<!DOCTYPE svg PUBLIC "-//W3C//DTD SVG 20010904//EN"
 "http://www.w3.org/TR/2001/REC-SVG-20010904/DTD/svg10.dtd">
<svg version="1.0" xmlns="http://www.w3.org/2000/svg"
 width="1280.000000pt" height="1280.000000pt" viewBox="0 0 1280.000000 1280.000000"
 preserveAspectRatio="xMidYMid meet">

<g transform="translate(0.000000,1280.000000) scale(0.100000,-0.100000)"
fill="#000000" stroke="none">
<path d="M0 6400 l0 -6400 6400 0 6400 0 0 6400 0 6400 -6400 0 -6400 0 0
-6400z m6520 4119 c188 -83 233 -342 84 -479 -62 -57 -121 -80 -204 -80 -82 0
-140 22 -200 76 -50 45 -75 91 -88 164 -18 96 8 181 77 253 87 92 214 117 331
66z m-1290 -209 c165 -43 411 -156 580 -267 190 -125 387 -296 533 -462 l57
-64 61 69 c290 324 667 582 1014 693 138 44 175 54 175 45 0 -3 -30 -38 -66
-78 -436 -470 -862 -1408 -1145 -2523 -18 -73 -37 -129 -41 -125 -3 4 -21 63
-38 132 -81 322 -217 760 -327 1050 -235 625 -544 1178 -819 1470 -67 71 -76
85 -46 76 9 -3 37 -10 62 -16z m-101 -911 c27 -79 64 -182 81 -229 17 -47 35
-96 39 -110 14 -43 82 -234 91 -255 4 -11 45 -126 90 -255 45 -129 109 -309
143 -400 33 -91 65 -183 73 -205 12 -40 100 -287 156 -440 16 -44 38 -105 48
-135 29 -85 50 -145 144 -410 48 -135 100 -281 116 -325 15 -44 54 -152 85
-240 32 -88 80 -223 107 -300 27 -77 56 -156 63 -175 7 -19 16 -43 19 -53 9
-28 26 -16 43 28 17 49 57 161 112 315 22 63 48 135 57 160 9 25 31 88 49 140
19 52 50 140 70 195 20 55 52 147 72 205 20 58 51 146 70 195 19 50 41 113 49
140 8 28 21 64 29 80 7 17 18 46 23 65 6 19 27 80 47 135 52 142 160 443 189
530 8 22 30 85 50 140 20 55 45 125 56 155 20 60 205 582 276 780 25 69 67
188 94 265 65 188 62 180 70 164 4 -8 40 -102 80 -209 39 -107 76 -204 81
-215 4 -11 20 -51 34 -90 42 -115 101 -272 155 -415 28 -74 60 -160 70 -190
10 -30 44 -122 75 -205 31 -82 69 -184 84 -225 16 -41 45 -120 65 -175 21 -55
81 -215 133 -355 52 -140 109 -292 126 -338 17 -46 38 -87 46 -91 9 -5 79 -25
156 -45 77 -21 158 -43 180 -51 22 -8 119 -35 215 -60 96 -26 207 -56 245 -67
39 -11 93 -25 120 -32 42 -11 325 -90 630 -175 l70 -20 -969 2 -968 2 -74 194
c-40 107 -85 226 -98 265 -14 39 -51 136 -82 216 -31 80 -62 165 -70 190 -8
25 -18 54 -24 65 -11 23 -224 598 -248 668 -14 43 -42 65 -42 35 0 -7 -25 -80
-56 -163 -30 -82 -59 -163 -64 -180 -5 -16 -17 -55 -28 -85 -12 -30 -60 -165
-107 -300 -100 -283 -164 -462 -205 -575 -55 -152 -188 -530 -195 -555 -4 -14
-13 -38 -20 -55 -8 -16 -20 -50 -29 -75 -17 -50 -15 -47 -168 -475 -118 -333
-163 -460 -254 -710 -31 -88 -63 -178 -70 -200 -7 -22 -27 -78 -44 -125 -17
-47 -43 -120 -57 -162 -14 -43 -29 -78 -33 -78 -4 0 -17 28 -28 63 -11 34 -37
107 -57 162 -20 55 -45 127 -56 160 -12 33 -100 281 -196 550 -96 270 -182
513 -190 540 -8 28 -19 55 -23 60 -4 6 -14 33 -23 60 -15 51 -62 184 -77 220
-4 11 -29 81 -55 155 -26 74 -64 183 -85 241 -22 58 -71 198 -110 310 -39 112
-78 222 -87 244 -9 22 -21 58 -29 80 -7 22 -27 78 -44 125 -18 47 -49 135 -71
195 -21 61 -64 182 -95 270 -31 88 -68 195 -82 238 -15 42 -31 77 -37 77 -5 0
-44 -91 -85 -202 -41 -111 -90 -243 -109 -293 -18 -49 -42 -112 -52 -140 -10
-27 -29 -81 -44 -120 -14 -38 -35 -95 -45 -125 -11 -30 -24 -64 -29 -75 -9
-19 -61 -159 -122 -325 -15 -41 -51 -140 -81 -220 l-55 -145 -969 -2 -969 -2
70 20 c39 11 185 51 325 90 244 68 281 78 430 119 85 23 421 115 530 145 47
13 123 34 170 46 90 23 113 39 129 92 5 18 37 106 71 197 34 91 68 183 76 205
7 22 28 81 47 130 19 50 87 232 151 405 65 173 124 329 131 345 7 17 16 41 20
55 3 14 17 52 30 85 13 33 38 98 55 145 17 47 40 108 50 135 10 28 28 75 39
105 11 30 26 69 32 85 7 17 22 57 34 90 108 298 179 475 186 463 4 -8 31 -79
58 -159z m3140 -5924 c47 -8 87 -18 90 -20 5 -6 -119 -135 -130 -135 -7 0 -69
150 -69 165 0 8 17 6 109 -10z m-3959 -170 c58 -96 107 -175 110 -175 3 0 41
78 85 173 l81 172 73 0 73 0 -1 -190 c-1 -104 -4 -261 -7 -347 l-7 -158 -48 0
c-59 0 -56 -9 -64 195 -8 208 -16 308 -25 298 -5 -4 -47 -98 -95 -208 -48
-110 -90 -204 -94 -208 -4 -4 -43 72 -86 170 -43 98 -87 197 -98 221 -10 24
-21 42 -23 39 -2 -2 -22 -118 -44 -257 -21 -139 -41 -254 -44 -257 -3 -3 -7
10 -10 28 -6 36 -46 606 -46 652 l0 27 83 0 82 0 105 -175z m2496 -92 c-3
-148 -9 -305 -13 -350 l-6 -83 -57 0 -57 0 -6 158 c-4 86 -10 244 -13 350 l-7
192 83 0 83 0 -7 -267z m1231 -29 c-7 -321 -5 -341 40 -329 38 9 24 -14 -32
-52 -71 -49 -95 -43 -131 35 -1 2 -28 -11 -59 -29 -74 -41 -171 -51 -225 -21
-117 64 -111 296 9 392 50 39 133 77 199 91 l52 10 0 100 0 99 77 0 76 0 -6
-296z m-2776 87 c23 -19 24 -25 29 -208 3 -103 9 -194 14 -201 5 -8 19 -12 32
-9 36 7 29 -8 -22 -48 -64 -48 -89 -47 -127 7 -11 17 -16 16 -67 -9 -46 -24
-67 -28 -143 -28 -86 0 -89 1 -114 29 -22 25 -24 36 -19 74 10 72 35 96 174
164 126 63 127 64 130 100 5 64 -14 66 -248 31 -42 -6 -44 -5 -31 11 19 22 79
53 161 82 85 31 197 33 231 5z m590 9 c49 -27 57 -91 42 -372 l-6 -128 -52 0
c-62 0 -64 3 -66 125 -1 124 -15 255 -28 268 -16 16 -82 11 -127 -10 -37 -17
-39 -21 -46 -73 -3 -30 -6 -91 -7 -136 -1 -45 -4 -102 -7 -128 l-7 -46 -52 0
-53 0 -6 128 c-3 70 -9 182 -12 250 l-6 123 78 -3 79 -3 -3 -37 c-2 -21 -1
-38 2 -38 3 0 27 15 53 34 27 18 62 38 78 44 39 14 121 15 146 2z m505 -5 c55
-23 111 -72 142 -123 22 -39 27 -59 27 -117 0 -247 -297 -353 -459 -163 -33
38 -66 117 -66 158 0 9 7 40 16 69 41 140 214 229 340 176z m1042 -5 c37 -35
43 -82 32 -271 -5 -96 -10 -184 -10 -196 0 -21 -5 -23 -55 -23 -46 0 -55 3
-55 18 -2 87 -20 341 -26 355 -12 33 -41 39 -97 23 -86 -26 -81 -15 -92 -213
l-10 -178 -52 -3 -51 -3 -6 38 c-3 21 -8 110 -11 198 -3 88 -8 184 -12 213
l-5 52 81 0 81 0 0 -41 0 -41 35 26 c86 66 208 88 253 46z m1432 10 c31 -17
40 -67 40 -232 0 -177 7 -204 47 -193 18 4 24 2 21 -7 -6 -18 -97 -78 -118
-78 -19 0 -43 19 -57 45 -7 12 -18 10 -63 -12 -46 -23 -69 -27 -142 -27 -78
-1 -89 1 -112 23 -20 19 -26 34 -26 66 0 71 30 102 170 175 68 36 128 72 133
81 16 25 0 66 -27 73 -22 5 -104 -2 -216 -20 -42 -7 -44 -6 -31 10 19 23 101
64 171 87 60 20 181 25 210 9z m-506 -87 c-3 -49 -9 -160 -12 -248 l-7 -160
-55 0 -55 0 -6 90 c-4 50 -9 161 -13 248 l-7 157 80 0 81 0 -6 -87z"/>
<path d="M7819 3201 c-92 -58 -139 -135 -139 -229 0 -96 50 -128 152 -98 86
26 81 13 73 195 -8 183 -7 181 -86 132z"/>
<path d="M5080 2996 c-80 -53 -111 -111 -78 -144 17 -17 39 -15 103 9 l55 20
0 80 c0 43 -3 79 -8 79 -4 0 -37 -20 -72 -44z"/>
<path d="M6211 3221 c-48 -12 -66 -53 -66 -149 0 -78 3 -93 30 -141 36 -66 75
-92 129 -89 64 5 81 38 81 156 0 88 -3 101 -28 144 -36 62 -92 92 -146 79z"/>
<path d="M8663 3001 c-71 -46 -93 -74 -93 -117 0 -51 36 -57 118 -19 l52 24 0
76 c0 41 -4 75 -8 75 -5 0 -36 -18 -69 -39z"/>
</g>
</svg>
